<svg xmlns="http://www.w3.org/2000/svg" viewBox="0 0 1080 1080" fill="currentColor">
<g transform="translate(0,1080) scale(0.1,-0.1)">
<path d="M0 5400 l0 -5400 5400 0 5400 0 0 5400 0 5400 -5400 0 -5400 0 0
-5400z m6505 2589 c165 -12 346 -47 404 -78 11 -6 27 -11 35 -11 9 0 60 -21
113 -46 504 -236 819 -672 883 -1219 16 -146 13 -2191 -5 -2330 -45 -363 -184
-652 -430 -901 -67 -67 -210 -181 -291 -231 -95 -59 -252 -125 -394 -166 -186
-54 -141 -52 -1425 -52 -1111 0 -1196 1 -1280 18 -274 56 -461 137 -672 293
-175 130 -341 331 -447 541 -58 117 -116 307 -137 458 -18 119 -25 2205 -9
2340 18 152 46 295 61 320 4 6 10 26 14 45 4 19 11 41 16 50 4 8 24 51 44 95
122 267 335 504 590 657 76 46 250 128 271 128 8 0 24 5 35 11 55 29 252 68
389 78 150 10 2102 11 2235 0z"/>
<path d="M4215 7665 c-363 -44 -706 -268 -886 -580 -72 -123 -104 -206 -142
-360 -22 -90 -22 -96 -25 -1230 -2 -1013 -1 -1149 13 -1225 26 -134 53 -216
111 -336 168 -347 505 -595 891 -657 114 -18 2323 -17 2439 1 169 26 347 99
507 206 160 107 333 318 406 496 12 30 26 64 30 75 20 49 43 142 56 232 22
146 22 2230 0 2365 -52 318 -206 580 -455 772 -51 40 -204 136 -216 136 -3 0
-24 9 -47 19 -23 10 -67 26 -97 36 -30 9 -68 21 -85 26 -16 6 -84 16 -150 24
-160 20 -2191 19 -2350 0z m1160 -367 c3 -13 4 -126 3 -253 l-3 -230 -455 -5
c-481 -6 -481 -6 -580 -56 -62 -31 -147 -102 -187 -156 -45 -62 -58 -85 -86
-158 -22 -55 -22 -56 -22 -980 0 -925 0 -925 34 -995 61 -127 158 -229 261
-277 19 -9 53 -24 75 -34 37 -17 77 -19 495 -22 336 -2 457 -6 462 -15 9 -14
11 -448 2 -471 -5 -14 -52 -16 -423 -16 -505 1 -563 7 -749 77 -130 50 -238
120 -355 232 -96 92 -147 163 -207 286 -49 100 -65 151 -90 284 -19 99 -20
151 -20 975 0 581 4 886 11 916 6 25 14 68 19 95 8 49 21 92 45 150 128 301
361 516 670 617 137 45 268 55 707 57 388 1 388 1 393 -21z m1821 -509 c3 -5
-30 -51 -73 -102 -499 -592 -545 -647 -590 -697 -17 -19 -58 -67 -90 -107 -32
-39 -93 -113 -136 -163 -104 -121 -125 -153 -132 -204 -10 -66 18 -160 63
-214 20 -24 51 -61 67 -82 33 -42 167 -201 201 -240 34 -39 105 -122 145 -171
49 -59 178 -213 374 -444 88 -105 166 -198 173 -207 13 -16 -9 -17 -316 -17
-374 -1 -321 -20 -482 174 -41 50 -89 106 -106 125 -18 19 -43 49 -55 65 -13
17 -53 64 -89 106 -36 42 -105 124 -155 184 -49 59 -121 144 -160 190 -38 45
-94 111 -124 146 -77 91 -81 93 -196 99 l-100 5 -3 234 c-2 181 1 236 10 243
7 4 56 8 109 8 96 0 96 0 147 53 28 28 64 68 79 89 26 34 96 117 238 283 64
76 92 109 235 280 50 61 113 135 140 165 26 30 67 80 91 110 59 76 71 87 94
93 37 9 635 6 641 -4z"/>
</g>
</svg>
